<svg width="512" height="512" viewBox="0 0 512 512" fill="none" xmlns="http://www.w3.org/2000/svg">
<path d="M256 352C253.899 352.002 251.818 351.589 249.876 350.785C247.935 349.98 246.172 348.8 244.688 347.312L84.688 187.312C78.436 181.06 78.436 170.936 84.688 164.688C90.94 158.44 101.064 158.436 107.312 164.688L256 313.376L404.688 164.688C410.94 158.436 421.064 158.436 427.312 164.688C433.56 170.94 433.564 181.064 427.312 187.312L267.312 347.312C265.828 348.8 264.065 349.98 262.124 350.785C260.182 351.589 258.101 352.002 256 352Z" fill="black"/>
</svg>
